<?xml version="1.0" standalone="no"?>
<!DOCTYPE svg PUBLIC "-//W3C//DTD SVG 20010904//EN"
 "http://www.w3.org/TR/2001/REC-SVG-20010904/DTD/svg10.dtd">
<svg version="1.0" xmlns="http://www.w3.org/2000/svg"
 width="2362.000000pt" height="708.000000pt" viewBox="0 0 2362.000000 708.000000"
 preserveAspectRatio="xMidYMid meet">

<g transform="translate(0.000000,708.000000) scale(0.100000,-0.100000)"
fill="#000000" stroke="none">
<path d="M3429 7019 c-935 -60 -1830 -514 -2434 -1236 -405 -484 -666 -1049
-769 -1663 -38 -227 -49 -402 -43 -673 7 -305 34 -507 103 -782 201 -797 709
-1525 1394 -1997 464 -320 986 -520 1551 -594 171 -22 531 -29 715 -15 1528
123 2794 1225 3128 2723 85 381 104 847 50 1232 -215 1541 -1415 2752 -2949
2975 -253 37 -489 46 -746 30z m121 -1849 c878 -53 1665 -242 2274 -547 248
-124 322 -179 367 -271 35 -69 34 -206 0 -277 -53 -106 -154 -174 -272 -183
-85 -6 -113 4 -279 94 -426 231 -951 393 -1555 478 -782 112 -1660 75 -2295
-95 -63 -17 -135 -35 -160 -40 -123 -26 -275 52 -337 175 -57 112 -38 262 46
358 57 65 119 93 312 142 342 88 694 141 1089 165 198 12 621 12 810 1z m39
-1215 c624 -63 1195 -219 1696 -465 366 -180 433 -239 443 -388 9 -137 -78
-249 -219 -281 -71 -16 -130 2 -274 84 -502 285 -1113 461 -1789 515 -165 13
-586 13 -741 0 -285 -25 -547 -70 -786 -135 -69 -19 -142 -35 -161 -35 -106 0
-223 90 -253 195 -38 131 23 263 150 321 74 34 378 109 583 143 158 26 396 54
567 65 127 8 637 -4 784 -19z m31 -1139 c432 -51 795 -147 1160 -308 145 -63
358 -177 427 -227 112 -81 120 -236 18 -330 -90 -83 -168 -80 -329 14 -405
234 -868 376 -1396 426 -181 17 -611 14 -815 -5 -214 -21 -451 -57 -668 -102
-165 -35 -169 -35 -222 -19 -95 27 -155 108 -155 206 0 81 44 155 114 188 103
51 645 141 1016 170 172 14 690 6 850 -13z"/>
<path d="M18223 5406 c-104 -34 -195 -114 -241 -214 -24 -50 -27 -70 -27 -157
0 -93 2 -105 32 -166 39 -80 111 -150 191 -187 51 -24 69 -27 162 -27 99 1
109 2 169 33 78 41 141 104 178 180 26 52 28 67 28 167 0 101 -2 115 -28 168
-37 74 -107 144 -183 181 -50 25 -73 30 -149 33 -57 2 -105 -2 -132 -11z"/>
<path d="M19785 5266 c-242 -39 -402 -151 -499 -346 -58 -118 -83 -233 -92
-427 l-7 -142 -141 -3 -141 -3 0 -265 0 -265 143 -3 142 -3 0 -933 c0 -779 2
-935 14 -945 9 -8 99 -11 307 -9 l294 3 3 943 2 942 251 0 250 0 23 -52 c92
-208 746 -1789 746 -1803 0 -25 -62 -124 -102 -162 -49 -48 -100 -65 -188 -65
-78 1 -180 27 -253 64 -76 38 -77 37 -183 -196 -52 -115 -94 -219 -92 -230 7
-46 231 -135 406 -161 243 -37 456 -3 606 95 124 82 211 189 308 385 42 83
1028 2606 1028 2629 0 2 -7 12 -16 20 -13 14 -55 16 -309 16 -234 0 -296 -3
-307 -14 -7 -7 -141 -380 -298 -829 -157 -449 -288 -813 -291 -809 -4 4 -147
374 -318 822 -172 448 -318 818 -324 822 -7 4 -223 8 -481 8 l-469 0 6 88 c9
122 30 185 77 232 82 82 228 92 447 28 109 -31 104 -44 101 256 l-3 251 -53
17 c-141 47 -435 69 -587 44z"/>
<path d="M9207 5145 c-448 -73 -755 -331 -849 -712 -27 -111 -29 -329 -5 -440
46 -210 156 -368 339 -487 163 -106 357 -179 718 -271 242 -61 377 -104 455
-142 149 -75 209 -158 209 -292 0 -62 -5 -87 -27 -131 -31 -65 -47 -85 -110
-133 -152 -116 -493 -129 -786 -31 -167 56 -351 163 -503 294 -26 22 -57 40
-70 40 -19 0 -61 -44 -196 -205 -95 -112 -172 -213 -172 -224 0 -22 49 -68
162 -152 250 -185 540 -307 858 -361 149 -25 438 -30 565 -9 461 73 756 303
872 678 25 82 27 100 28 278 0 172 -2 197 -23 265 -77 243 -223 396 -507 531
-135 64 -267 107 -540 178 -368 95 -505 152 -589 241 -103 111 -101 278 5 394
86 94 211 139 389 140 241 0 471 -77 724 -244 67 -44 116 -70 129 -68 28 4
329 424 325 453 -4 26 -129 121 -257 194 -173 98 -371 170 -571 206 -131 24
-454 29 -573 10z"/>
<path d="M16536 4984 c-14 -13 -16 -57 -16 -325 l0 -309 -140 0 c-127 0 -140
-2 -150 -19 -6 -12 -10 -111 -10 -251 0 -140 4 -239 10 -251 10 -17 23 -19
150 -19 l139 0 4 -682 c4 -766 3 -758 78 -916 69 -149 197 -253 374 -304 72
-21 100 -23 270 -22 163 0 201 4 270 22 98 27 233 89 246 113 5 10 9 119 9
243 0 195 -2 227 -16 241 -10 9 -24 14 -33 11 -9 -2 -56 -19 -106 -37 -163
-58 -342 -50 -407 18 -65 67 -63 48 -66 710 l-3 603 313 2 313 3 0 265 0 265
-312 3 -313 2 0 313 c0 230 -3 316 -12 325 -9 9 -88 12 -294 12 -244 0 -285
-2 -298 -16z"/>
<path d="M12107 4384 c-197 -36 -384 -137 -521 -284 -26 -28 -49 -50 -51 -50
-3 0 -5 62 -5 138 0 94 -4 142 -12 150 -17 17 -579 17 -596 0 -9 -9 -12 -369
-12 -1559 0 -1394 2 -1549 16 -1563 13 -14 54 -16 290 -16 171 0 283 4 295 10
18 10 19 26 19 501 l0 491 58 -53 c135 -124 286 -210 437 -250 114 -30 319
-37 445 -15 488 84 840 449 931 966 26 147 29 401 6 540 -69 411 -285 722
-619 891 -208 105 -460 143 -681 103z m198 -549 c183 -47 326 -165 408 -335
66 -138 81 -208 80 -370 0 -160 -20 -249 -84 -379 -77 -156 -222 -272 -394
-316 -76 -19 -224 -19 -300 0 -176 44 -326 168 -409 335 -68 139 -81 199 -81
365 0 115 4 154 23 218 87 304 322 494 612 496 47 1 113 -6 145 -14z"/>
<path d="M14706 4389 c-424 -58 -791 -317 -977 -689 -193 -385 -177 -857 41
-1219 191 -318 495 -526 875 -597 121 -22 349 -23 475 0 627 111 1060 623
1060 1251 0 613 -413 1113 -1025 1240 -95 20 -350 28 -449 14z m349 -564 c115
-30 203 -82 296 -175 68 -68 94 -102 127 -170 59 -120 82 -218 82 -355 0 -136
-23 -235 -81 -354 -197 -401 -747 -482 -1064 -157 -148 153 -224 388 -196 611
40 329 248 560 553 615 69 12 207 5 283 -15z"/>
<path d="M23008 4349 c-202 -22 -354 -231 -318 -437 29 -166 145 -283 311
-312 164 -29 332 58 407 210 24 50 27 66 27 165 0 100 -2 115 -28 167 -73 149
-222 226 -399 207z m187 -60 c67 -25 141 -94 175 -163 32 -67 39 -183 16 -258
-33 -102 -121 -191 -220 -220 -23 -7 -72 -13 -111 -12 -295 2 -440 369 -229
580 98 99 231 125 369 73z"/>
<path d="M22910 3985 l0 -195 40 0 40 0 0 66 0 65 42 -3 c40 -3 45 -7 86 -65
42 -61 45 -63 88 -63 24 0 44 2 44 5 0 3 -20 33 -45 67 -25 34 -45 66 -45 70
0 5 12 14 26 20 50 23 70 108 39 168 -26 50 -60 60 -195 60 l-120 0 0 -195z
m209 124 c31 -11 46 -39 39 -75 -5 -28 -46 -44 -110 -44 l-58 0 0 65 0 65 49
0 c26 0 62 -5 80 -11z"/>
<path d="M18035 4338 c-3 -7 -4 -553 -3 -1213 l3 -1200 300 0 300 0 0 1210 0
1210 -298 3 c-233 2 -299 0 -302 -10z"/>
</g>
</svg>
